<svg width="855" height="1024" viewBox="0 0 855 1024" fill="none" xmlns="http://www.w3.org/2000/svg">
<g clip-path="url(#clip0_483_1310)">
<path d="M840.97 799.87L603.03 256H603.86C674.09 256 731.03 198.69 731.03 128C731.03 57.31 674.08 0 603.85 0H251.74C181.51 0 124.57 57.31 124.57 128C124.57 198.69 181.12 255.61 251.02 256L13.54 799.98C-32.6 905.68 44.85 1024 160.18 1024H694.38C809.76 1024 887.21 905.58 840.97 799.87ZM427.03 815.84C427.03 718.63 348.24 639.84 251.03 639.84C348.24 639.84 427.03 561.05 427.03 463.84C427.03 561.05 505.82 639.84 603.03 639.84C505.82 639.84 427.03 718.63 427.03 815.84Z" fill="#007AFF"/>
</g>
<defs>
<clipPath id="clip0_483_1310">
<rect width="854.56" height="1024" fill="white"/>
</clipPath>
</defs>
</svg>
