<svg width="155" height="40" viewBox="0 0 155 40" fill="none" xmlns="http://www.w3.org/2000/svg">
<g id="labassist logo 1" clip-path="url(#clip0_4_9)">
<g id="Layer 1">
<path id="Vector" d="M32.7734 31.2442L23.5008 10H23.5334C26.2713 10 28.4892 7.76154 28.4892 5C28.4892 2.23846 26.2693 0 23.5334 0H9.81158C7.07374 0 4.85583 2.23846 4.85583 5C4.85583 7.76154 7.06031 9.98462 9.78472 10L0.527466 31.25C-1.27026 35.3788 1.7477 40 6.24298 40H27.0617C31.5589 40 34.5769 35.375 32.7753 31.2442H32.7734ZM16.6418 31.8673C16.6418 28.0692 13.572 24.9923 9.7828 24.9923C13.572 24.9923 16.6418 21.9154 16.6418 18.1173C16.6418 21.9154 19.7116 24.9923 23.5008 24.9923C19.7116 24.9923 16.6418 28.0692 16.6418 31.8673Z" fill="#C9E8FF"/>
<g id="Group">
<path id="Vector_2" d="M42.5123 11.2038H45.49V26.4731H53.2814V29.0769H42.5123V11.2038Z" fill="#C9E8FF"/>
<path id="Vector_3" d="M67.7553 29.0769H66.2799C65.4165 29.0769 64.7949 28.8981 64.415 28.5404C64.0352 28.1827 63.8452 27.6635 63.8452 26.9827C62.8437 28.4808 61.3856 29.2288 59.4708 29.2288C57.9858 29.2288 56.7963 28.8885 55.8984 28.2077C55.0005 27.5269 54.5515 26.5904 54.5515 25.3981C54.5515 24.0538 55.035 23.0192 56.002 22.2962C56.9689 21.5731 58.3753 21.2115 60.221 21.2115H63.5613V20.4192C63.5613 19.6865 63.3022 19.1135 62.7842 18.6962C62.2662 18.2788 61.5506 18.0712 60.6354 18.0712C59.8238 18.0712 59.1561 18.2462 58.6285 18.5942C58.1028 18.9442 57.7863 19.4077 57.6827 19.9865H54.9391C55.0772 18.675 55.6643 17.6577 56.7003 16.9346C57.7364 16.2115 59.0909 15.85 60.7639 15.85C62.5425 15.85 63.9143 16.2577 64.8793 17.075C65.8463 17.8923 66.3298 19.0673 66.3298 20.5981V25.7558C66.3298 26.3692 66.6234 26.675 67.2104 26.675H67.7534V29.075L67.7553 29.0769ZM60.0924 23.2558C59.2291 23.2558 58.5652 23.4212 58.099 23.7538C57.6328 24.0865 57.4006 24.575 57.4006 25.2212C57.4006 25.7827 57.6213 26.2346 58.0606 26.575C58.5 26.9154 59.1005 27.0865 59.8603 27.0865C61.0172 27.0865 61.9189 26.7808 62.5655 26.1673C63.2121 25.5538 63.544 24.7365 63.5613 23.7154V23.2558H60.0924Z" fill="#C9E8FF"/>
<path id="Vector_4" d="M81.8379 18.9654C82.3732 19.9692 82.6398 21.1615 82.6398 22.5404C82.6398 23.9192 82.3732 25.0135 81.8379 26.025C81.3026 27.0385 80.5601 27.825 79.6123 28.3865C78.6626 28.9481 77.5843 29.2289 76.3756 29.2289C75.3914 29.2289 74.5376 29.0462 73.8124 28.6789C73.0871 28.3135 72.5 27.8154 72.0511 27.1846L71.7153 29.075H69.2825V11.2038H72.0779V17.9442C73.1312 16.5481 74.5625 15.85 76.3756 15.85C77.5843 15.85 78.6626 16.1173 79.6123 16.6538C80.562 17.1904 81.3045 17.9596 81.8379 18.9654ZM79.7926 22.5404C79.7926 21.2635 79.4339 20.2212 78.7182 19.4115C78.0026 18.6019 77.0663 18.1981 75.9094 18.1981C74.7525 18.1981 73.8219 18.5981 73.114 19.3981C72.406 20.1981 72.053 21.2365 72.053 22.5135C72.053 23.7904 72.406 24.8635 73.114 25.6789C73.8219 26.4962 74.7544 26.9038 75.9094 26.9038C77.0644 26.9038 78.0026 26.5 78.7182 25.6904C79.4339 24.8827 79.7926 23.8308 79.7926 22.5365V22.5404Z" fill="#C9E8FF"/>
<path id="Vector_5" d="M90.5099 11.2038H94.0574L100.815 29.0789H97.6299L95.9204 24.6615H88.4897L86.807 29.0789H83.7258L90.508 11.2038H90.5099ZM95.0916 22.1577L92.1926 14.3692L89.3185 22.1577H95.0916Z" fill="#C9E8FF"/>
<path id="Vector_6" d="M105.592 26.4346C106.187 26.8692 106.96 27.0865 107.91 27.0865C108.756 27.0865 109.441 26.9288 109.968 26.6135C110.494 26.2981 110.759 25.8769 110.759 25.35C110.759 24.9077 110.638 24.575 110.396 24.3538C110.155 24.1327 109.83 23.975 109.425 23.8808C109.021 23.7865 108.393 23.6885 107.549 23.5865C106.392 23.45 105.439 23.2673 104.688 23.0365C103.938 22.8077 103.334 22.4404 102.875 21.9385C102.417 21.4365 102.188 20.7596 102.188 19.9077C102.188 19.1077 102.417 18.3962 102.875 17.775C103.334 17.1538 103.963 16.6731 104.765 16.3327C105.567 15.9923 106.478 15.8212 107.497 15.8212C109.172 15.8212 110.531 16.1865 111.574 16.9192C112.618 17.6519 113.184 18.6808 113.27 20.0096H110.552C110.483 19.4135 110.181 18.925 109.646 18.5423C109.111 18.1596 108.437 17.9673 107.628 17.9673C106.818 17.9673 106.16 18.1212 105.661 18.4269C105.16 18.7327 104.911 19.15 104.911 19.6788C104.911 20.0712 105.036 20.3635 105.287 20.5596C105.536 20.7558 105.853 20.8923 106.233 20.9673C106.613 21.0442 107.225 21.1327 108.071 21.2346C109.211 21.3538 110.168 21.5365 110.945 21.7846C111.722 22.0327 112.344 22.4231 112.808 22.9596C113.274 23.4962 113.506 24.2231 113.506 25.1423C113.506 25.9596 113.265 26.6788 112.781 27.3C112.298 27.9212 111.634 28.3981 110.788 28.7308C109.942 29.0635 108.992 29.2288 107.94 29.2288C106.162 29.2288 104.727 28.8327 103.629 28.0423C102.534 27.25 101.968 26.1577 101.933 24.7615H104.625C104.677 25.4423 105.001 26 105.596 26.4346H105.592Z" fill="#C9E8FF"/>
<path id="Vector_7" d="M118.717 26.4346C119.312 26.8692 120.085 27.0865 121.035 27.0865C121.881 27.0865 122.566 26.9288 123.094 26.6135C123.619 26.2981 123.884 25.8769 123.884 25.35C123.884 24.9077 123.763 24.575 123.521 24.3538C123.28 24.1327 122.955 23.975 122.551 23.8808C122.146 23.7865 121.518 23.6885 120.674 23.5865C119.517 23.45 118.564 23.2673 117.814 23.0365C117.063 22.8077 116.459 22.4404 116 21.9385C115.542 21.4365 115.314 20.7596 115.314 19.9077C115.314 19.1077 115.542 18.3962 116 17.775C116.459 17.1538 117.088 16.6731 117.89 16.3327C118.692 15.9923 119.604 15.8212 120.622 15.8212C122.297 15.8212 123.656 16.1865 124.699 16.9192C125.743 17.6519 126.309 18.6808 126.395 20.0096H123.677C123.608 19.4135 123.307 18.925 122.771 18.5423C122.236 18.1596 121.562 17.9673 120.753 17.9673C119.943 17.9673 119.285 18.1212 118.786 18.4269C118.286 18.7327 118.036 19.15 118.036 19.6788C118.036 20.0712 118.161 20.3635 118.412 20.5596C118.662 20.7558 118.978 20.8923 119.358 20.9673C119.738 21.0442 120.35 21.1327 121.196 21.2346C122.336 21.3538 123.293 21.5365 124.07 21.7846C124.847 22.0327 125.469 22.4231 125.933 22.9596C126.399 23.4962 126.631 24.2231 126.631 25.1423C126.631 25.9596 126.39 26.6788 125.906 27.3C125.423 27.9212 124.759 28.3981 123.913 28.7308C123.067 29.0635 122.117 29.2288 121.066 29.2288C119.287 29.2288 117.852 28.8327 116.754 28.0423C115.659 27.25 115.093 26.1577 115.058 24.7615H117.75C117.802 25.4423 118.126 26 118.721 26.4346H118.717Z" fill="#C9E8FF"/>
<path id="Vector_8" d="M131.7 16.0038H128.905V29.0769H131.7V16.0038Z" fill="#C9E8FF"/>
<path id="Vector_9" d="M137.642 26.4346C138.237 26.8692 139.01 27.0865 139.96 27.0865C140.806 27.0865 141.491 26.9288 142.019 26.6135C142.544 26.2981 142.809 25.8769 142.809 25.35C142.809 24.9077 142.688 24.575 142.447 24.3538C142.205 24.1327 141.881 23.975 141.476 23.8808C141.071 23.7865 140.443 23.6885 139.599 23.5865C138.442 23.45 137.489 23.2673 136.739 23.0365C135.988 22.8077 135.384 22.4404 134.926 21.9385C134.467 21.4365 134.239 20.7596 134.239 19.9077C134.239 19.1077 134.467 18.3962 134.926 17.775C135.384 17.1538 136.013 16.6731 136.815 16.3327C137.617 15.9923 138.529 15.8212 139.547 15.8212C141.222 15.8212 142.581 16.1865 143.625 16.9192C144.668 17.6519 145.234 18.6808 145.321 20.0096H142.602C142.533 19.4135 142.232 18.925 141.696 18.5423C141.161 18.1596 140.488 17.9673 139.678 17.9673C138.868 17.9673 138.21 18.1212 137.711 18.4269C137.211 18.7327 136.961 19.15 136.961 19.6788C136.961 20.0712 137.086 20.3635 137.337 20.5596C137.587 20.7558 137.903 20.8923 138.283 20.9673C138.663 21.0442 139.275 21.1327 140.121 21.2346C141.261 21.3538 142.218 21.5365 142.995 21.7846C143.772 22.0327 144.394 22.4231 144.858 22.9596C145.324 23.4962 145.557 24.2231 145.557 25.1423C145.557 25.9596 145.315 26.6788 144.831 27.3C144.348 27.9212 143.684 28.3981 142.838 28.7308C141.992 29.0635 141.042 29.2288 139.991 29.2288C138.212 29.2288 136.777 28.8327 135.68 28.0423C134.584 27.25 134.018 26.1577 133.984 24.7615H136.675C136.727 25.4423 137.051 26 137.646 26.4346H137.642Z" fill="#C9E8FF"/>
<path id="Vector_10" d="M146.38 18.4288V16.0038H148.684V12.3519H151.506V16.0038H154.691V18.4288H151.506V25.2462C151.506 25.7577 151.61 26.1192 151.817 26.3308C152.024 26.5442 152.377 26.65 152.878 26.65H155V29.075H152.308C151.048 29.075 150.129 28.7865 149.551 28.2077C148.974 27.6288 148.684 26.7346 148.684 25.5269V18.4288H146.38Z" fill="#C9E8FF"/>
<path id="Vector_11" d="M132.606 12.4288C131.334 12.4288 130.304 13.4615 130.304 14.7365C130.304 13.4615 129.273 12.4288 128.001 12.4288C129.273 12.4288 130.304 11.3962 130.304 10.1212C130.304 11.3962 131.334 12.4288 132.606 12.4288Z" fill="#C9E8FF"/>
</g>
</g>
</g>
<defs>
<clipPath id="clip0_4_9">
<rect width="155" height="40" fill="white"/>
</clipPath>
</defs>
</svg>
